<svg xmlns="http://www.w3.org/2000/svg" xmlns:xlink="http://www.w3.org/1999/xlink" width="240" height="240" viewBox="0 0 240 240">
  <defs>
    <clipPath id="clip-아트보드_1">
      <rect width="240" height="240"/>
    </clipPath>
  </defs>
  <g id="아트보드_1" data-name="아트보드 – 1" clip-path="url(#clip-아트보드_1)">
    <g id="그룹_2" data-name="그룹 2" transform="translate(-33.704 -39.316)">
      <path id="패스_1" data-name="패스 1" d="M118.357,174.769a16.988,16.988,0,0,1-11.814-5.056c-3.917-3.677-6.079-9.583-5.933-16.2.238-11.485,7.084-22.881,17.433-29.033,9.728-5.781,22.34-7.038,33.771-3.366a49.177,49.177,0,0,1,19.779,12.351,25.392,25.392,0,0,1,15.923,2.339c4,2.15,7.782,7.744,6.809,12.336-.315,1.51-1.7,5.076-7.6,5.516-5.8.371-9.322-4.642-11.722-8.36l-.437-.68a51.563,51.563,0,0,0-4.6-6.006,24.476,24.476,0,0,0-3.289,1.115c-8.211,3.439-14.689,10.358-20.945,17.05l-.774.824c-6.279,6.7-15.77,16.832-26.089,17.162C118.7,174.764,118.526,174.769,118.357,174.769Zm20.187-51.021a35.532,35.532,0,0,0-18.093,4.78c-8.986,5.343-14.927,15.187-15.135,25.085-.115,5.285,1.51,9.9,4.448,12.665,2.813,2.646,5.819,3.9,8.954,3.776,8.372-.268,17.059-9.541,22.808-15.675l.766-.824c6.6-7.054,13.424-14.348,22.563-18.177.452-.187.912-.364,1.364-.53a43.862,43.862,0,0,0-15.846-9.249A38.731,38.731,0,0,0,138.544,123.748Zm36.906,14.064q1.622,2.025,3.059,4.229v0l.452.7c2.445,3.775,4.271,6.489,7.421,6.213,1.993-.15,3.113-.751,3.335-1.8.452-2.105-1.824-5.808-4.423-7.207A19.312,19.312,0,0,0,175.45,137.811Z" transform="translate(4.962 13.687)"/>
      <path id="패스_2" data-name="패스 2" d="M190.825,122.225a61.463,61.463,0,0,1-27.3-6.907c-23.046-11.638-34.882-33.078-26.941-48.809,3.926-7.778,12.045-12.727,22.847-13.93,10.235-1.124,21.711,1.223,32.422,6.632s19.443,13.274,24.58,22.152c5.451,9.407,6.286,18.876,2.353,26.657s-12.044,12.727-22.845,13.93A46.811,46.811,0,0,1,190.825,122.225ZM164.583,60.149a38.244,38.244,0,0,0-4.278.234c-8.088.9-14.021,4.332-16.713,9.668-5.758,11.4,4.991,28.925,23.475,38.26,9.369,4.734,19.343,6.819,28.006,5.834,8.081-.9,14.015-4.332,16.706-9.668S213.71,92.33,209.639,85.3c-4.377-7.57-11.951-14.348-21.328-19.079A53.5,53.5,0,0,0,164.583,60.149Z" transform="translate(10.715 2.23)"/>
      <path id="패스_3" data-name="패스 3" d="M77.2,189.328c-11.813,23.394-3.953,51.164,17.554,62.023s48.521.7,60.332-22.7c7.091-14.044-4.6-34.232-26.1-45.091S84.29,175.284,77.2,189.328Z" transform="translate(0 23.612)"/>
      <path id="패스_4" data-name="패스 4" d="M191.448,123.363a61.647,61.647,0,0,1-27.423-6.988c-10.717-5.408-19.45-13.275-24.587-22.153-5.444-9.406-6.286-18.875-2.354-26.656C149.451,43.1,177.94,32.477,200.61,43.923s31.041,40.67,18.684,65.149v0C214.563,118.437,204.044,123.363,191.448,123.363Zm-10.3-76.2c-14.72,0-29.447,8.886-37.052,23.947-2.691,5.331-1.932,12.143,2.138,19.182,4.386,7.57,11.96,14.347,21.336,19.077,18.461,9.327,38.939,7.575,44.719-3.829h0c10.4-20.619,3.581-45.117-15.218-54.609A35.2,35.2,0,0,0,181.145,47.162Z" transform="translate(10.806)"/>
    </g>
  </g>
</svg>
