<svg xmlns="http://www.w3.org/2000/svg" width="148.353" height="216.967" viewBox="0 0 148.353 216.967">
  <g id="그룹_1" data-name="그룹 1" transform="translate(-71.704 -39.315)">
    <path id="패스_1" data-name="패스 1" d="M116.654,169.42a15.358,15.358,0,0,1-10.68-4.571c-3.541-3.324-5.5-8.663-5.364-14.645.215-10.383,6.4-20.685,15.76-26.247,8.795-5.226,20.2-6.363,30.53-3.043a44.457,44.457,0,0,1,17.881,11.165,22.955,22.955,0,0,1,14.395,2.114c3.618,1.944,7.035,7,6.155,11.152-.285,1.365-1.539,4.589-6.869,4.987-5.246.336-8.427-4.2-10.6-7.558l-.4-.614a46.615,46.615,0,0,0-4.159-5.43,22.128,22.128,0,0,0-2.973,1.008c-7.423,3.109-13.28,9.364-18.935,15.414l-.7.745c-5.676,6.061-14.256,15.217-23.585,15.515C116.966,169.416,116.806,169.42,116.654,169.42ZM134.9,123.3a32.122,32.122,0,0,0-16.357,4.322c-8.123,4.83-13.495,13.73-13.682,22.677-.1,4.778,1.365,8.951,4.021,11.449a11.055,11.055,0,0,0,8.095,3.414c7.568-.242,15.421-8.625,20.619-14.17l.693-.745c5.968-6.377,12.136-12.971,20.4-16.433.409-.169.824-.329,1.233-.479A39.653,39.653,0,0,0,145.6,124.97,35.014,35.014,0,0,0,134.9,123.3Zm33.364,12.714q1.467,1.83,2.766,3.823v0l.409.631c2.211,3.413,3.861,5.866,6.709,5.617,1.8-.136,2.814-.679,3.015-1.625.409-1.9-1.649-5.251-4-6.515A17.459,17.459,0,0,0,168.267,136.01Z" transform="translate(1.712 4.722)" fill="#fff"/>
    <path id="패스_2" data-name="패스 2" d="M185.383,115.515a55.564,55.564,0,0,1-24.68-6.244c-20.834-10.521-31.534-29.9-24.355-44.124C139.9,58.115,147.237,53.641,157,52.553c9.252-1.016,19.628,1.106,29.31,6s17.577,12,22.221,20.026c4.928,8.5,5.683,17.064,2.127,24.1s-10.888,11.505-20.653,12.593A42.319,42.319,0,0,1,185.383,115.515ZM161.659,59.4a34.574,34.574,0,0,0-3.867.212c-7.312.81-12.676,3.916-15.109,8.74C137.478,78.658,147.2,94.5,163.9,102.936c8.47,4.279,17.487,6.165,25.318,5.274,7.306-.811,12.67-3.916,15.1-8.74s1.747-10.982-1.934-17.341c-3.957-6.844-10.8-12.971-19.281-17.248A48.364,48.364,0,0,0,161.659,59.4Z" transform="translate(3.697 0.769)" fill="#fff"/>
    <path id="패스_3" data-name="패스 3" d="M76.672,188.13C65.993,209.279,73.1,234.383,92.541,244.2s43.864.632,54.542-20.517c6.41-12.7-4.155-30.947-23.6-40.764S83.082,175.434,76.672,188.13Z" transform="translate(0 8.146)" fill="#fff"/>
    <path id="패스_4" data-name="패스 4" d="M186,115.3a55.731,55.731,0,0,1-24.791-6.317c-9.689-4.889-17.583-12-22.227-20.027-4.921-8.5-5.683-17.063-2.128-24.1,11.179-22.12,36.934-31.722,57.428-21.374s28.062,36.767,16.891,58.9v0C206.893,110.844,197.383,115.3,186,115.3Zm-9.315-68.888c-13.307,0-26.621,8.033-33.5,21.649-2.433,4.82-1.747,10.978,1.933,17.341,3.965,6.844,10.813,12.97,19.289,17.246,16.689,8.432,35.2,6.848,40.427-3.462h0c9.4-18.64,3.237-40.787-13.757-49.368A31.818,31.818,0,0,0,176.682,46.409Z" transform="translate(3.728 0)" fill="#fff"/>
  </g>
</svg>
