<?xml version="1.0" standalone="no"?>
<!DOCTYPE svg PUBLIC "-//W3C//DTD SVG 20010904//EN"
 "http://www.w3.org/TR/2001/REC-SVG-20010904/DTD/svg10.dtd">
<svg version="1.0" xmlns="http://www.w3.org/2000/svg"
 width="700.000000pt" height="700.000000pt" viewBox="0 0 700.000000 700.000000"
 preserveAspectRatio="xMidYMid meet">
<metadata>
Created by potrace 1.11, written by Peter Selinger 2001-2013
</metadata>
<g transform="translate(0.000000,700.000000) scale(0.100000,-0.100000)"
fill="#000000" stroke="none">
<path d="M4478 6994 c-3 -2 -22 -6 -44 -8 -230 -25 -501 -146 -710 -317 -203
-166 -407 -458 -461 -659 -25 -96 -23 -270 6 -380 93 -357 408 -700 840 -915
372 -186 740 -240 1096 -161 156 34 341 148 436 268 98 124 211 415 235 607 2
20 7 44 10 53 8 26 8 274 0 338 -12 88 -36 198 -63 285 -27 85 -110 268 -124
273 -5 2 -9 8 -9 14 0 15 -82 127 -137 189 -63 69 -112 115 -176 162 -29 21
-59 43 -68 50 -89 67 -287 149 -444 183 -71 15 -376 30 -387 18z m342 -244
c306 -62 572 -266 713 -545 54 -107 65 -135 91 -236 30 -113 52 -283 36 -277
-4 2 -34 42 -66 91 -267 397 -768 695 -1280 761 -90 11 -276 13 -348 3 l-28
-4 28 23 c77 64 298 154 455 187 92 20 296 18 399 -3z m-530 -434 c188 -25
347 -75 530 -168 371 -189 629 -466 711 -765 30 -108 24 -234 -14 -317 -63
-136 -245 -248 -447 -274 -91 -12 -299 -5 -400 12 -328 58 -691 256 -914 498
-286 310 -347 656 -151 853 77 78 233 145 374 161 31 3 57 7 58 8 6 5 202 -2
253 -8z"/>
<path d="M3127 4274 c-1 -1 -33 -5 -72 -9 -230 -22 -460 -126 -629 -285 -205
-192 -327 -460 -328 -720 -1 -189 54 -340 165 -454 164 -167 386 -199 610 -87
162 81 253 161 651 569 161 165 271 259 379 323 66 39 184 89 211 89 13 0 76
-81 188 -240 111 -158 216 -213 353 -186 163 32 221 168 141 332 -62 124 -149
190 -312 235 -78 21 -226 31 -282 18 -29 -6 -38 -3 -60 20 -203 205 -507 354
-787 387 -58 7 -223 13 -228 8z m247 -149 c61 -11 68 -12 116 -25 157 -41 320
-124 457 -234 l63 -49 -58 -26 c-207 -93 -304 -175 -762 -645 -149 -154 -257
-242 -362 -296 -43 -23 -78 -39 -78 -36 0 3 -16 -2 -35 -10 -47 -19 -155 -18
-207 3 -313 122 -367 556 -115 928 174 256 486 406 827 399 63 -1 132 -5 154
-9z m1088 -419 c104 -28 183 -88 215 -166 25 -57 25 -77 0 -105 -18 -21 -33
-27 -72 -30 -61 -3 -90 11 -141 68 -39 44 -162 219 -172 246 -4 11 6 13 54 8
32 -4 84 -13 116 -21z"/>
<path d="M1878 2295 c-2 -2 -25 -5 -53 -9 -183 -22 -361 -108 -471 -230 -89
-98 -174 -295 -220 -511 -26 -123 -28 -383 -4 -512 50 -276 164 -498 350 -683
227 -227 491 -339 810 -345 227 -4 400 35 603 136 272 135 531 398 651 660 45
98 56 155 51 269 -4 116 -9 143 -46 244 -110 300 -370 574 -739 774 -148 81
-395 166 -540 187 -25 4 -70 11 -100 15 -49 7 -285 11 -292 5z"/>
</g>
</svg>
